<?xml version="1.0" encoding="utf-8"?>
<!-- Generator: Adobe Illustrator 19.0.0, SVG Export Plug-In . SVG Version: 6.00 Build 0)  -->
<svg version="1.1" id="图层_1" xmlns="http://www.w3.org/2000/svg" xmlns:xlink="http://www.w3.org/1999/xlink" x="0px" y="0px"
	 viewBox="0 0 16 16" style="enable-background:new 0 0 16 16;" xml:space="preserve">
<style type="text/css">
	.st0{fill:#272635;}
</style>
<g id="XMLID_3_">
	<g id="XMLID_4_" transform="scale(0.1953125, 0.1953125)">
		<path id="XMLID_1_" class="st0" d="M68,43c0.1-0.1,0.1-0.2,0.2-0.3c0.9-1.9,0.6-4.3-1-5.9L29.7,1.4c-2-1.9-5.3-1.8-7.2,0.2
			s-1.8,5.3,0.2,7.2l33.6,31.8L22.8,72.9c-2,1.9-2.1,5.2-0.1,7.2c1,1,2.3,1.6,3.7,1.6c1.3,0,2.5-0.5,3.5-1.4L67,44.4
			c0.1-0.1,0.1-0.2,0.2-0.2c0.1-0.1,0.1-0.1,0.2-0.1C67.6,43.7,67.8,43.3,68,43L68,43z"/>
	</g>
</g>
</svg>
