<?xml version="1.0" encoding="utf-8"?>
<!-- Generator: Adobe Illustrator 19.0.0, SVG Export Plug-In . SVG Version: 6.00 Build 0)  -->
<svg version="1.1" id="图层_1" xmlns="http://www.w3.org/2000/svg" xmlns:xlink="http://www.w3.org/1999/xlink" x="0px" y="0px"
	 viewBox="0 0 16 16" style="enable-background:new 0 0 16 16;" xml:space="preserve">
<style type="text/css">
	.st0{fill:#272635;}
</style>
<g id="XMLID_4_">
	<g id="XMLID_5_" transform="scale(0.1953125, 0.1953125)">
		<path id="XMLID_6_" class="st0" d="M65.4,32.8H64l0,0H51.8l0,0H28.7V19.2c0-4.5,5.5-9.5,12.2-9.5c6.7,0,12.2,5,12.2,9.5v3.3
			c0,0,0,0,0,0.1c0,0,0,0,0,0.1v0.6h0c0.3,2.3,2.3,4.1,4.7,4.1c2.4,0,4.4-1.8,4.7-4.1h0.1v-4.1c0-10.5-9.7-19-21.7-19
			c-12,0-21.7,8.5-21.7,19v13.6h-2.7c-4.5,0-8.1,3.6-8.1,8.1v32.6c0,4.5,3.6,8.1,8.1,8.1h48.9c4.5,0,8.1-3.6,8.1-8.1l0-32.6
			C73.5,36.5,69.9,32.8,65.4,32.8z M45,62.9v3.7c0,2.3-1.8,4.2-4.1,4.2c-2.2,0-4.1-1.9-4.1-4.2v-3.7c-3.2-1.5-5.4-4.7-5.4-8.5
			c0-5.2,4.3-9.4,9.5-9.4c5.3,0,9.5,4.2,9.5,9.4C50.5,58.2,48.2,61.4,45,62.9z"/>
	</g>
</g>
</svg>
