<?xml version="1.0" encoding="utf-8"?>
<!-- Generator: Adobe Illustrator 19.0.0, SVG Export Plug-In . SVG Version: 6.00 Build 0)  -->
<svg version="1.1" id="图层_1" xmlns="http://www.w3.org/2000/svg" xmlns:xlink="http://www.w3.org/1999/xlink" x="0px" y="0px"
	 viewBox="0 0 16 16" style="enable-background:new 0 0 16 16;" xml:space="preserve">
<style type="text/css">
	.st0{fill:#272635;}
</style>
<g id="XMLID_5_">
	<g id="XMLID_6_" transform="scale(0.1953125, 0.1953125)">
		<path id="XMLID_7_" class="st0" d="M60.6,81.6H21.3c-2.3,0-4.2-1.9-4.2-4.2V4.5c0-2.3,1.9-4.2,4.2-4.2h39.3c2.3,0,4.2,1.9,4.2,4.2
			v72.9C64.8,79.7,62.9,81.6,60.6,81.6z M41,77.4c1.6,0,2.8-1.3,2.8-2.8s-1.3-2.8-2.8-2.8c-1.6,0-2.8,1.3-2.8,2.8
			C38.2,76.2,39.4,77.4,41,77.4z M60.6,8.7h-1.4H22.7h-1.4v58.9h1.4h36.5h1.4V8.7z"/>
	</g>
</g>
</svg>
