<?xml version="1.0" encoding="utf-8"?>
<!-- Generator: Adobe Illustrator 19.0.0, SVG Export Plug-In . SVG Version: 6.00 Build 0)  -->
<svg version="1.1" id="图层_1" xmlns="http://www.w3.org/2000/svg" xmlns:xlink="http://www.w3.org/1999/xlink" x="0px" y="0px"
	 viewBox="0 0 16 16" style="enable-background:new 0 0 16 16;" xml:space="preserve">
<style type="text/css">
	.st0{fill:#272635;}
</style>
<g id="XMLID_5_">
	<g id="XMLID_6_" transform="scale(0.1953125, 0.1953125)">
		<path id="XMLID_7_" class="st0" d="M55.7,37.7H44.3V26.2c0-1.8-1.5-3.3-3.3-3.3c-1.8,0-3.3,1.5-3.3,3.3v11.5H26.2
			c-1.8,0-3.3,1.5-3.3,3.3c0,1.8,1.5,3.3,3.3,3.3h11.5v11.5c0,1.8,1.5,3.3,3.3,3.3c1.8,0,3.3-1.5,3.3-3.3V44.3h11.5
			c1.8,0,3.3-1.5,3.3-3.3C59,39.2,57.5,37.7,55.7,37.7L55.7,37.7z M41,0C18.4,0,0,18.4,0,41s18.4,41,41,41c22.6,0,41-18.4,41-41
			C81.9,18.4,63.5,0,41,0L41,0z M41,76.8C21.2,76.8,5.1,60.7,5.1,41C5.1,21.2,21.2,5.1,41,5.1S76.8,21.2,76.8,41
			C76.8,60.7,60.7,76.8,41,76.8L41,76.8z"/>
	</g>
</g>
</svg>
